<?xml version="1.0" encoding="UTF-8"?>
<svg version="1.1" xmlns="http://www.w3.org/2000/svg" width="1024" height="1024">
<path d="M0 0 C337.92 0 675.84 0 1024 0 C1024 337.92 1024 675.84 1024 1024 C686.08 1024 348.16 1024 0 1024 C0 686.08 0 348.16 0 0 Z " fill="#FAE9D0" transform="translate(0,0)"/>
<path d="M0 0 C0.97404785 0.65548828 0.97404785 0.65548828 1.96777344 1.32421875 C10.79839796 7.32516589 18.97977814 13.96255658 27 21 C27.83917969 21.72703125 28.67835938 22.4540625 29.54296875 23.203125 C40.60424251 32.94715083 50.97887015 43.33004847 60 55 C61.00471887 56.26471191 62.00996471 57.5290053 63.015625 58.79296875 C91.56554083 95.00732027 109.4758853 137.056603 119 182 C119.16338867 182.76876465 119.32677734 183.5375293 119.49511719 184.32958984 C128.3727175 227.63033474 126.99830065 273.89198994 119.27050781 317.22680664 C117.94539953 324.56610691 117.94539953 324.56610691 118 332 C119.14714995 333.80421242 119.14714995 333.80421242 120.9375 335.0625 C133.14131816 346.10287099 140.51999222 363.90122339 142 380 C142.13957719 383.15617011 142.15694772 386.30784095 142.16113281 389.46679688 C142.16609772 390.37860718 142.17106262 391.29041748 142.17617798 392.2298584 C142.1906996 395.2261635 142.19758631 398.22241559 142.203125 401.21875 C142.20595238 402.250569 142.20877975 403.282388 142.21169281 404.34547424 C142.22664807 409.81039686 142.23589955 415.27529334 142.24023438 420.74023438 C142.24570083 426.34354953 142.26970089 431.94661948 142.29820633 437.54985809 C142.316971 441.89457869 142.3220457 446.23924197 142.32357025 450.58399963 C142.32656828 452.64735752 142.33449845 454.71071511 142.34775543 456.77403259 C142.51018864 484.00776166 137.3296882 505.76477685 118 526 C117.45988281 526.61488281 116.91976562 527.22976563 116.36328125 527.86328125 C110.89104164 533.85931206 103.87275413 537.80810741 97 542 C96.09507812 542.60328125 95.19015625 543.2065625 94.2578125 543.828125 C93.51273438 544.21484375 92.76765625 544.6015625 92 545 C91.01 544.67 90.02 544.34 89 544 C89.47308594 543.61070312 89.94617188 543.22140625 90.43359375 542.8203125 C105.27389014 530.26536389 114.62061428 515.90596539 119 497 C119.1733638 496.27980179 119.3467276 495.55960358 119.52534485 494.81758118 C121.79071227 483.61239689 121.30861566 472.1793703 121.30078125 460.80078125 C121.30467589 458.43727036 121.30901212 456.07376017 121.31376648 453.71025085 C121.32120214 448.76880622 121.32095727 443.82743306 121.31567383 438.88598633 C121.3098912 432.59682332 121.32679433 426.30795596 121.3500185 420.01884174 C121.36485228 415.1396467 121.36561435 410.26052121 121.36250877 405.3813076 C121.36301743 403.06479496 121.36816805 400.74827794 121.37832069 398.43178749 C121.50383327 365.78555144 114.26636019 341.60209005 91.19921875 317.73828125 C86.98018758 313.81880871 81.896579 310.98389516 77 308 C77.12117187 306.71125977 77.24234375 305.42251953 77.3671875 304.09472656 C77.82373772 299.21241796 78.26800805 294.32905026 78.70898438 289.4453125 C78.89976067 287.35061439 79.09366004 285.25619785 79.29101562 283.16210938 C81.08544494 264.08256504 81.46322107 245.37772137 80.25 226.25 C80.20709839 225.57333282 80.16419678 224.89666565 80.11999512 224.19949341 C76.49367205 168.6145069 55.79842572 115.49981841 17.49609375 74.68359375 C15.36940178 72.39715027 13.32927439 70.07012916 11.3125 67.6875 C8.54761537 64.51372398 5.61095485 61.73947149 2.39453125 59.02734375 C0.57020156 57.48276446 -1.21357817 55.91625625 -2.98828125 54.31640625 C-12.04818489 46.22878495 -21.69921524 39.41849878 -32 33 C-32.65162109 32.59152832 -33.30324219 32.18305664 -33.97460938 31.76220703 C-82.62406823 1.70289113 -145.95149608 -7.82998892 -202 0 C-202.89525391 0.12358887 -203.79050781 0.24717773 -204.71289062 0.37451172 C-233.46180629 4.50654228 -261.41843204 13.19363875 -287 27 C-288.155 27.61359375 -289.31 28.2271875 -290.5 28.859375 C-317.31672431 43.60857337 -342.32002187 64.70318996 -361 89 C-361.42635742 89.54994629 -361.85271484 90.09989258 -362.29199219 90.66650391 C-382.07509787 116.32472196 -395.64757058 145.76973435 -404 177 C-404.19577637 177.72832031 -404.39155273 178.45664062 -404.59326172 179.20703125 C-407.94403308 192.01312337 -409.37120363 205.02864203 -410.70141602 218.17700195 C-410.87780362 219.84467969 -411.06977377 221.51104265 -411.29663086 223.17260742 C-412.36934017 231.13132586 -412.19573143 239.17262461 -412.1875 247.1875 C-412.18789276 247.99603424 -412.18828552 248.80456848 -412.18869019 249.63760376 C-412.18073419 263.39825633 -411.59248207 277.04186666 -410.53515625 290.76171875 C-410.45531494 291.82334229 -410.37547363 292.88496582 -410.29321289 293.97875977 C-410.03995908 296.98366747 -410.03995908 296.98366747 -409.50170898 299.86303711 C-409.09009205 302.34166203 -408.78213692 304.4967737 -409 307 C-411.08798295 309.47182768 -412.30061853 310.57008464 -414.9375 312.1875 C-416.15210744 313.02710613 -417.36565291 313.86825066 -418.578125 314.7109375 C-419.17044922 315.10506836 -419.76277344 315.49919922 -420.37304688 315.90527344 C-438.32942834 327.98756853 -447.53555596 348.51904769 -452 369 C-452.17622485 369.79203732 -452.3524497 370.58407465 -452.5340147 371.40011311 C-452.98513297 373.9170519 -453.13362031 376.21651066 -453.14717102 378.77006531 C-453.15432632 379.70172516 -453.16148163 380.63338501 -453.16885376 381.59327698 C-453.17154266 382.60365524 -453.17423157 383.61403351 -453.17700195 384.6550293 C-453.18357315 385.72899963 -453.19014435 386.80296997 -453.19691467 387.90948486 C-453.21662273 391.46439694 -453.22830989 395.01926665 -453.23828125 398.57421875 C-453.24235678 399.79384623 -453.2464323 401.0134737 -453.25063133 402.27005959 C-453.27148964 408.73578343 -453.28578782 415.20148612 -453.29516602 421.66723633 C-453.30517411 428.30515729 -453.34052364 434.9427704 -453.38033772 441.58058453 C-453.4066574 446.71717392 -453.41487181 451.85368459 -453.41844749 456.99033546 C-453.42328032 459.43442877 -453.43479827 461.87851936 -453.45348549 464.32254601 C-453.58685847 482.93504604 -452.4700552 500.0598896 -444 517 C-443.50886719 517.98226562 -443.01773438 518.96453125 -442.51171875 519.9765625 C-437.44467128 529.33669314 -430.50747992 536.56759488 -423 544 C-434.00919074 540.75912876 -442.94288191 532.92438138 -451 525 C-451.77214844 524.24074219 -452.54429687 523.48148438 -453.33984375 522.69921875 C-468.44340969 506.92438321 -474.11062781 487.59896229 -474.17700195 466.12841797 C-474.18357315 465.18559464 -474.19014435 464.2427713 -474.19691467 463.27137756 C-474.21648277 460.17831315 -474.22827329 457.0852969 -474.23828125 453.9921875 C-474.24235678 452.92693974 -474.2464323 451.86169197 -474.25063133 450.76416397 C-474.27142203 445.1253301 -474.28575378 439.48652005 -474.29516602 433.84765625 C-474.30621511 428.06148096 -474.3406184 422.27569179 -474.38033772 416.48965263 C-474.40663231 412.00600529 -474.41486921 407.52244826 -474.41844749 403.03873062 C-474.42328032 400.90754718 -474.43479834 398.77636685 -474.45348549 396.64525986 C-474.57972108 381.29542621 -473.58478631 367.52883123 -466.25 353.6875 C-465.91000977 353.0265332 -465.57001953 352.36556641 -465.21972656 351.68457031 C-461.80803776 345.26533216 -457.68990798 338.63564855 -451.703125 334.359375 C-448.86713769 330.43062194 -450.26151587 326.5933713 -451 322 C-451.3170566 319.57871731 -451.6292154 317.15679019 -451.9375 314.734375 C-452.37861119 311.40628985 -452.82020809 308.07831819 -453.27050781 304.75146484 C-455.46183332 288.51573492 -456.18654828 272.58629137 -456.18530273 256.21728516 C-456.18747675 253.03404097 -456.20565893 249.85115143 -456.22460938 246.66796875 C-456.4115162 179.40170088 -436.75518539 110.78593603 -394 58 C-393.29746094 57.10539062 -392.59492188 56.21078125 -391.87109375 55.2890625 C-378.16059568 38.06887892 -362.49775622 23.27773686 -345 10 C-344.40848145 9.54625 -343.81696289 9.0925 -343.20751953 8.625 C-266.05484684 -50.3975282 -160.26859882 -62.26656771 0 0 Z " fill="#0E161A" transform="translate(678,239)"/>
<path d="M0 0 C2.14642096 0.03458409 4.28875856 0.02051054 6.43530273 0.0012207 C17.18386299 0.01203834 26.68548056 1.55386654 35.01147461 8.83911133 C39.86320865 14.77193828 39.86886938 20.24521534 39.7986908 27.56628418 C39.79999278 28.67382002 39.80129477 29.78135587 39.80263621 30.9224534 C39.80323317 34.63507524 39.78221702 38.34725649 39.76123047 42.05981445 C39.75707034 44.7208882 39.7540802 47.38194038 39.75247192 50.04301453 C39.74568259 56.52136446 39.72243199 62.99955483 39.69306862 69.47783792 C39.66942573 74.74317688 39.65133042 80.0085072 39.63717842 85.27388 C39.63515148 86.02345762 39.63312454 86.77303524 39.63103618 87.54532734 C39.62693027 89.06811072 39.62283162 90.59089413 39.61874015 92.11367756 C39.57961635 106.39070578 39.52122926 120.66760713 39.45674957 134.94454008 C39.39832007 148.00570623 39.36275964 161.06681565 39.33818691 174.12808567 C39.312769 187.54162268 39.27267676 200.9550399 39.21637255 214.36848402 C39.18500302 221.89827787 39.15932545 229.42798542 39.14878654 236.95783997 C39.13962995 243.36701537 39.11649636 249.77595517 39.07534992 256.18500817 C39.05473298 259.45466999 39.04264343 262.7239672 39.04354668 265.99370384 C39.04344685 269.53870388 39.01892772 273.08271647 38.98814392 276.62756348 C38.99385798 277.6604407 38.99957204 278.69331792 39.00545925 279.75749445 C38.92267505 285.68566448 38.36397977 289.06099085 34.44897461 293.59692383 C32.58959961 295.17114258 32.58959961 295.17114258 30.69897461 296.28442383 C30.08538086 296.65954102 29.47178711 297.0346582 28.83959961 297.42114258 C22.49182323 300.54316985 17.23000035 302.06367951 10.21459961 302.06567383 C9.45532166 302.07328735 8.6960437 302.08090088 7.91375732 302.08874512 C6.31713114 302.09947805 4.72043514 302.10242716 3.1237793 302.09790039 C0.71792525 302.09693146 -1.6846955 302.13855406 -4.09008789 302.18286133 C-15.56931377 302.27278371 -25.22641747 300.83522039 -34.05102539 292.78442383 C-41.78547868 284.24764136 -43.85600124 274.7473751 -43.81845093 263.52801514 C-43.82298204 262.52932506 -43.82751315 261.53063498 -43.83218157 260.50168157 C-43.84481745 257.16326444 -43.8432057 253.82501062 -43.84155273 250.48657227 C-43.8475385 248.08962291 -43.85434416 245.69267548 -43.86190796 243.29573059 C-43.87773678 237.4649509 -43.88401617 231.63422056 -43.88513272 225.80342045 C-43.88608466 221.06111287 -43.89020227 216.31881858 -43.89653397 211.5765152 C-43.91413875 198.11589332 -43.92337411 184.65530328 -43.92187302 171.19466981 C-43.92179311 170.46970368 -43.92171319 169.74473754 -43.92163086 168.99780273 C-43.9215491 168.27194604 -43.92146734 167.54608935 -43.9213831 166.798237 C-43.92057055 155.04021326 -43.93970219 143.28231773 -43.96790759 131.52433106 C-43.99667467 119.43630457 -44.01044577 107.34834052 -44.00872004 95.26027894 C-44.00805743 88.47979709 -44.013493 81.69944963 -44.03507614 74.91899872 C-44.0544693 68.53971083 -44.05457526 62.16070631 -44.04004288 55.78140831 C-44.03795502 53.4445854 -44.04265424 51.1077447 -44.05476379 48.77095222 C-44.07026511 45.57156013 -44.06087514 42.3731392 -44.04550171 39.17376709 C-44.05578884 38.25730085 -44.06607596 37.34083461 -44.07667482 36.39659667 C-43.96525657 25.84523216 -40.22029755 16.02197213 -32.67602539 8.53442383 C-23.14469368 1.00235987 -11.66601479 -0.20753269 0 0 Z " fill="#0C1418" transform="translate(683.551025390625,517.403076171875)"/>
<path d="M0 0 C2.1842857 -0.01178485 4.36563503 -0.06092114 6.54931641 -0.11157227 C18.25088401 -0.24738907 28.82044484 1.60270318 38.27978516 9.11303711 C43.72961529 14.46138065 47.86351855 21.74580008 48.34608632 29.49344498 C48.34787489 30.23629067 48.34966346 30.97913636 48.35150623 31.74449253 C48.35596408 32.60607174 48.36042192 33.46765096 48.36501485 34.35533863 C48.36483049 35.29724818 48.36464613 36.23915773 48.36445618 37.20960999 C48.36813286 38.21390389 48.37180955 39.2181978 48.37559766 40.25292486 C48.38663699 43.62825713 48.39047879 47.00355862 48.39428711 50.37890625 C48.40055162 52.79511615 48.40719841 55.21132508 48.41419983 57.62753296 C48.43342837 64.88589779 48.44402877 72.14426008 48.45292762 79.40264264 C48.45731397 82.82365535 48.46267993 86.24466653 48.46791649 89.66567802 C48.48492796 101.04329259 48.49942067 112.4209062 48.50666523 123.79853153 C48.50857502 126.74996504 48.51049537 129.70139855 48.51245117 132.65283203 C48.51293491 133.38636646 48.51341865 134.11990089 48.51391705 134.87566363 C48.5222119 146.75026879 48.54753991 158.62477304 48.58003185 170.49933416 C48.61314362 182.70025982 48.63111776 194.90113427 48.63430947 207.10210508 C48.6364709 213.94859192 48.64516542 220.79493165 48.67077065 227.64137459 C48.6948157 234.08542428 48.69827749 240.52928145 48.68800926 246.9733696 C48.6875142 249.33438306 48.69382594 251.6954096 48.70756531 254.05638313 C48.72531825 257.2887628 48.71816058 260.52019743 48.70503235 263.75257874 C48.71600159 264.67887323 48.72697084 265.60516772 48.73827249 266.55953175 C48.64038323 276.59651069 45.352205 286.19569594 38.21728516 293.42553711 C30.57435753 299.79228016 22.7368632 301.71477406 12.98291016 301.83178711 C12.2236322 301.84318726 11.46435425 301.8545874 10.68206787 301.86633301 C9.085464 301.8850949 7.48878509 301.89824549 5.89208984 301.90600586 C3.48605019 301.92538596 1.08346083 301.98752637 -1.32177734 302.05053711 C-12.30007626 302.19982553 -21.50067007 300.59955358 -29.90771484 292.80053711 C-32.83094056 289.09778454 -34.03182379 286.45793006 -34.03998375 281.72059155 C-34.04643264 280.77294404 -34.05288153 279.82529654 -34.05952585 278.84893245 C-34.05642864 277.81091166 -34.05333144 276.77289088 -34.05014038 275.70341492 C-34.05467149 274.59829349 -34.05920261 273.49317206 -34.06387103 272.3545621 C-34.07656755 268.63818813 -34.07489125 264.92195972 -34.07324219 261.20556641 C-34.07922417 258.54641165 -34.08597202 255.88726845 -34.09359741 253.2281189 C-34.11021443 246.74655538 -34.11570728 240.26502824 -34.11682217 233.7834452 C-34.11777237 228.51471618 -34.12188125 223.24599917 -34.12822342 217.97727394 C-34.1458382 203.03988988 -34.15506199 188.10253457 -34.15356247 173.16514006 C-34.15348256 172.35976493 -34.15340265 171.55438981 -34.15332031 170.72460938 C-34.15323855 169.91825095 -34.15315679 169.11189253 -34.15307255 168.281099 C-34.15225971 155.21394948 -34.17139617 142.14691525 -34.19959705 129.07979908 C-34.22832413 115.66299318 -34.24213742 102.24624352 -34.24040949 88.82940608 C-34.2397455 81.29671506 -34.24524168 73.76414488 -34.26676559 66.23148155 C-34.28497518 59.81759423 -34.28932671 53.40388252 -34.27574675 46.98998054 C-34.26921563 43.71813818 -34.27127735 40.44670277 -34.28645325 37.17487907 C-34.30184981 33.62582058 -34.2926333 30.07764912 -34.27719116 26.52861023 C-34.28747829 25.49728161 -34.29776541 24.46595299 -34.30836427 23.40337199 C-34.24866164 17.20130034 -33.44387107 13.48640302 -29.78271484 8.42553711 C-27.41552734 6.49975586 -27.41552734 6.49975586 -24.90771484 5.11303711 C-24.08529297 4.6425293 -23.26287109 4.17202148 -22.41552734 3.68725586 C-15.00701649 0.13688641 -8.05357737 0.02047671 0 0 Z " fill="#0C1418" transform="translate(334.78271484375,517.574462890625)"/>
<path d="M0 0 C11.75082658 2.50629462 21.52019569 6.1521534 32 12 C32.96421875 12.51046875 33.9284375 13.0209375 34.921875 13.546875 C54.49200693 24.77943593 68.40986066 45.23289616 74.25 66.6875 C76.52292422 75.36001005 77.1517658 83.59170139 77.17700195 92.50488281 C77.18357315 93.52731079 77.19014435 94.54973877 77.19691467 95.60314941 C77.21653853 98.96980888 77.22829003 102.33642382 77.23828125 105.703125 C77.24235678 106.86234215 77.2464323 108.0215593 77.25063133 109.21590424 C77.27145233 115.35975462 77.28576747 121.50358297 77.29516602 127.64746094 C77.30618209 133.94097378 77.34053815 140.23412838 77.38033772 146.52751541 C77.40670086 151.41111836 77.41487551 156.29463876 77.41844749 161.17830658 C77.42326793 163.49514924 77.434749 165.81198938 77.45348549 168.12876129 C77.66770547 196.38826257 73.42344733 221.3845713 52.92602539 242.38647461 C40.43709135 254.87540865 20.1938528 268.81560858 1.78125 269.0390625 C0.40453125 269.01972656 0.40453125 269.01972656 -1 269 C-1.02288364 238.0525561 -1.04054615 207.10511446 -1.05106533 176.15766409 C-1.05231582 172.49207227 -1.05361016 168.82648047 -1.05493164 165.16088867 C-1.05519395 164.43123058 -1.05545626 163.70157248 -1.05572652 162.94980354 C-1.06006076 151.18332771 -1.06793579 139.41685684 -1.0771528 127.65038394 C-1.08655209 115.54897039 -1.09206881 103.44755941 -1.09408849 91.34614235 C-1.09532949 84.56075301 -1.09827762 77.77537394 -1.10573006 70.98998833 C-1.11258716 64.5853987 -1.11459753 58.18082472 -1.11310768 51.77623177 C-1.1133797 49.44284606 -1.11532673 47.10945976 -1.11920547 44.77607727 C-1.14281281 29.82342671 -0.78518988 14.93277567 0 0 Z " fill="#E27948" transform="translate(723,534)"/>
<path d="M0 0 C0 88.44 0 176.88 0 268 C-16.00092274 266.39990773 -27.72425372 260.48936273 -41 252 C-41.91652344 251.46246094 -42.83304687 250.92492187 -43.77734375 250.37109375 C-46.64303764 248.60332827 -48.67491808 246.43580011 -51 244 C-51.76957031 243.31357422 -51.76957031 243.31357422 -52.5546875 242.61328125 C-66.73002849 229.64643708 -74.50708644 209.68097667 -77 191 C-77.1573769 187.40544971 -77.16740845 183.81319466 -77.17700195 180.21557617 C-77.18357315 179.13985352 -77.19014435 178.06413086 -77.19691467 176.95581055 C-77.21659485 173.40152914 -77.22830218 169.84729001 -77.23828125 166.29296875 C-77.24235678 165.0730102 -77.2464323 163.85305164 -77.25063133 162.59612465 C-77.27147541 156.13154903 -77.28578108 149.6669945 -77.29516602 143.20239258 C-77.30518496 136.56328119 -77.34055255 129.92447663 -77.38033772 123.28547192 C-77.40663853 118.14892506 -77.41487005 113.01245702 -77.41844749 107.87584877 C-77.42328326 105.43092896 -77.4348099 102.98601194 -77.45348549 100.54115868 C-77.58606959 82.02488297 -76.17045515 65.94167906 -68 49 C-67.58234375 48.10152344 -67.1646875 47.20304688 -66.734375 46.27734375 C-60.53247534 33.89136599 -51.05902115 24.18239715 -40 16 C-39.49404297 15.60578857 -38.98808594 15.21157715 -38.46679688 14.80541992 C-33.65028944 11.16416847 -28.51476246 8.7282952 -23 6.3125 C-21.70449219 5.72758789 -21.70449219 5.72758789 -20.3828125 5.13085938 C-13.45085917 2.04940596 -7.71017933 0 0 0 Z " fill="#E27948" transform="translate(301,535)"/>
<path d="M0 0 C12.61634396 9.66358261 20.54627684 23.91274643 25 39 C25.125 42.375 25.125 42.375 25 45 C22.290153 42.290153 21.81329245 39.21693058 20.8125 35.625 C17.37986904 24.07240348 11.41113284 13.72197906 3 5 C2.01 4.67 1.02 4.34 0 4 C0 2.68 0 1.36 0 0 Z " fill="#F08A4E" transform="translate(772,560)"/>
<path d="M0 0 C4.03520597 1.58962659 8.01811282 3.28232318 12 5 C12 5.66 12 6.32 12 7 C12.52464844 7.23847656 13.04929687 7.47695312 13.58984375 7.72265625 C16.74461124 9.39463189 19.63730855 11.4007244 22.5625 13.4375 C23.13935547 13.83259766 23.71621094 14.22769531 24.31054688 14.63476562 C27.10307592 16.57053259 29.71617781 18.47235337 32 21 C28.63765434 21 28.03249529 20.56687458 25.41015625 18.65625 C24.7133374 18.15520752 24.01651855 17.65416504 23.29858398 17.13793945 C22.56067627 16.59741943 21.82276855 16.05689941 21.0625 15.5 C19.5348417 14.39836886 18.00618899 13.29811541 16.4765625 12.19921875 C15.72149414 11.65571777 14.96642578 11.1122168 14.18847656 10.55224609 C10.20921898 7.72983202 6.12061122 5.07953721 2.02734375 2.42578125 C1.35832031 1.95527344 0.68929687 1.48476562 0 1 C0 0.67 0 0.34 0 0 Z " fill="#F2EFEA" transform="translate(663,229)"/>
<path d="M0 0 C3.20607991 2.89762325 4.84578504 6.24515625 6.81640625 10.0390625 C7.85114138 12.1483427 7.85114138 12.1483427 10 13 C10.33333333 14.66666667 10.66666667 16.33333333 11 18 C11.98422146 20.00781177 12.98234073 22.00892752 14 24 C14 24.66 14 25.32 14 26 C13.34 26 12.68 26 12 26 C9.99354751 22.04490505 7.99593864 18.08540979 6 14.125 C5.42765625 12.99707031 4.8553125 11.86914062 4.265625 10.70703125 C3.72421875 9.63066406 3.1828125 8.55429687 2.625 7.4453125 C2.12226562 6.45031738 1.61953125 5.45532227 1.1015625 4.43017578 C0 2 0 2 0 0 Z " fill="#F4F2EC" transform="translate(764,331)"/>
<path d="M0 0 C4.80748975 3.73915869 8.7679416 7.86683884 12.6875 12.5 C13.3822644 13.31827271 13.3822644 13.31827271 14.09106445 14.15307617 C16.98799546 17.62595643 19.55381868 21.19610211 22 25 C21.67 25.66 21.34 26.32 21 27 C19.83333333 25.54166667 18.66666667 24.08333333 17.5 22.625 C16.77167969 21.71621094 16.04335938 20.80742187 15.29296875 19.87109375 C13.80999411 18.01421749 12.33300493 16.15253825 10.86328125 14.28515625 C6.66536018 8.93472711 6.66536018 8.93472711 2 4 C1.34 3.34 0.68 2.68 0 2 C0 1.34 0 0.68 0 0 Z " fill="#F7F6F0" transform="translate(692,310)"/>
<path d="M0 0 C0.33 0 0.66 0 1 0 C0.89051894 4.1255669 0.75979775 8.25018878 0.625 12.375 C0.5940625 13.550625 0.563125 14.72625 0.53125 15.9375 C0.49257812 17.05898438 0.45390625 18.18046875 0.4140625 19.3359375 C0.3826416 20.37282715 0.3512207 21.4097168 0.31884766 22.47802734 C0 25 0 25 -2 27 C-2.05444001 23.99975053 -2.0938836 21.00050961 -2.125 18 C-2.14175781 17.16082031 -2.15851563 16.32164062 -2.17578125 15.45703125 C-2.21849117 9.94745123 -1.55502007 5.28951708 0 0 Z " fill="#E8844B" transform="translate(226,605)"/>
<path d="M0 0 C0 0.66 0 1.32 0 2 C-0.845625 2.7425 -1.69125 3.485 -2.5625 4.25 C-5.40139941 6.80232899 -5.40139941 6.80232899 -4.8125 10.3125 C-4.544375 11.199375 -4.27625 12.08625 -4 13 C-4.99 12.67 -5.98 12.34 -7 12 C-7 12.66 -7 13.32 -7 14 C-7.66 14 -8.32 14 -9 14 C-9.33 14.66 -9.66 15.32 -10 16 C-9.45318776 11.40677722 -8.09331358 8.09561352 -6 4 C-6 3.01 -6 2.02 -6 1 C-3 0 -3 0 0 0 Z " fill="#202226" transform="translate(220,587)"/>
<path d="M0 0 C8.31870894 3.75868271 15.25116029 10.96751758 22 17 C21.34 17.66 20.68 18.32 20 19 C19.62230469 18.59910156 19.24460937 18.19820313 18.85546875 17.78515625 C14.329609 13.11090766 9.46160185 9.04418794 4.35546875 5.015625 C2 3 2 3 0 0 Z " fill="#F4F2EE" transform="translate(664,285)"/>
<path d="M0 0 C6.94424639 3.41466489 12.40756246 7.67198031 18 13 C14.41648654 13 13.67894268 12.24028157 10.9375 10.0625 C8.10515084 7.81660545 8.10515084 7.81660545 5 6 C5 5.34 5 4.68 5 4 C2.525 3.01 2.525 3.01 0 2 C0 1.34 0 0.68 0 0 Z " fill="#F08B4E" transform="translate(754,546)"/>
<path d="M0 0 C0.33 0 0.66 0 1 0 C1.125 6.75 1.125 6.75 0 9 C0.66 9 1.32 9 2 9 C1.34 10.98 0.68 12.96 0 15 C-0.66 14.67 -1.32 14.34 -2 14 C-2.4140625 11.93359375 -2.4140625 11.93359375 -2.625 9.4375 C-2.69976562 8.61121094 -2.77453125 7.78492188 -2.8515625 6.93359375 C-2.90054688 6.29550781 -2.94953125 5.65742187 -3 5 C-2.34 4.67 -1.68 4.34 -1 4 C-0.34786708 1.97536745 -0.34786708 1.97536745 0 0 Z " fill="#2C2D2D" transform="translate(207,611)"/>
<path d="M0 0 C0.99 0.33 1.98 0.66 3 1 C1.9015258 2.46262592 0.7959964 3.91995503 -0.3125 5.375 C-0.92738281 6.18710937 -1.54226563 6.99921875 -2.17578125 7.8359375 C-4 10 -4 10 -7 12 C-7 10.02 -7 8.04 -7 6 C-5.35 6 -3.7 6 -2 6 C-1.34 4.02 -0.68 2.04 0 0 Z " fill="#F08A4F" transform="translate(783,763)"/>
<path d="M0 0 C0.43570313 0.37511719 0.87140625 0.75023437 1.3203125 1.13671875 C5.18607599 4.45859777 9.07657648 7.74642927 13 11 C12.01 11.495 12.01 11.495 11 12 C6.09380355 9.81252388 2.17396811 7.02730126 0 2 C0 1.34 0 0.68 0 0 Z " fill="#0D0B0F" transform="translate(242,771)"/>
<path d="M0 0 C-0.61875 0.28875 -1.2375 0.5775 -1.875 0.875 C-4.13325765 1.93720042 -4.13325765 1.93720042 -6 4 C-8.0234375 4.81640625 -8.0234375 4.81640625 -10.375 5.5625 C-11.14585937 5.81128906 -11.91671875 6.06007813 -12.7109375 6.31640625 C-14.79652769 6.93923609 -16.88370718 7.49266953 -19 8 C-14.31335885 2.79431715 -7.05902853 -0.92881954 0 0 Z " fill="#DB6632" transform="translate(289,539)"/>
<path d="M0 0 C0 0.66 0 1.32 0 2 C-2.60014527 3.03227862 -5.20426369 4.05105152 -7.8125 5.0625 C-8.55048828 5.35705078 -9.28847656 5.65160156 -10.04882812 5.95507812 C-15.66015625 8.11328125 -15.66015625 8.11328125 -19 7 C-15.38136201 4.66561061 -11.90495361 3.13937005 -7.8125 1.8125 C-6.76707031 1.46832031 -5.72164063 1.12414062 -4.64453125 0.76953125 C-2 0 -2 0 0 0 Z " fill="#0C0B0C" transform="translate(425,249)"/>
<path d="M0 0 C3.88997191 1.49746706 5.46948052 3.70422078 7.75 7.125 C8.67039062 8.49011719 8.67039062 8.49011719 9.609375 9.8828125 C10.29773438 10.93082031 10.29773438 10.93082031 11 12 C10.67 12.66 10.34 13.32 10 14 C8.51551984 12.23361856 7.03758035 10.46173862 5.5625 8.6875 C4.73878906 7.70136719 3.91507813 6.71523438 3.06640625 5.69921875 C1 3 1 3 0 0 Z " fill="#0D0B13" transform="translate(776,562)"/>
<path d="M0 0 C0 0.99 0 1.98 0 3 C-1.828125 4.75390625 -1.828125 4.75390625 -4.25 6.5625 C-5.03890625 7.16191406 -5.8278125 7.76132812 -6.640625 8.37890625 C-8.71172553 9.80193062 -10.72260908 10.95010189 -13 12 C-9.12207712 7.07091854 -5.23883167 3.4576289 0 0 Z " fill="#F18D50" transform="translate(264,549)"/>
<path d="M0 0 C0.66 0.33 1.32 0.66 2 1 C1.38125 1.721875 0.7625 2.44375 0.125 3.1875 C-1.83666353 5.78381938 -2.95316 7.94671666 -4 11 C-6.31 11 -8.62 11 -11 11 C-8 9 -8 9 -5 9 C-4.5978125 7.6078125 -4.5978125 7.6078125 -4.1875 6.1875 C-3.08851629 3.23759634 -2.37581439 1.94384814 0 0 Z " fill="#F7F2E7" transform="translate(305,524)"/>
<path d="M0 0 C0.66 0.33 1.32 0.66 2 1 C-2 8.57142857 -2 8.57142857 -6 11 C-6.66 10.67 -7.32 10.34 -8 10 C-5.36 6.7 -2.72 3.4 0 0 Z " fill="#F5F2EA" transform="translate(808,750)"/>
<path d="M0 0 C0.66 0 1.32 0 2 0 C3.76171875 1.86328125 3.76171875 1.86328125 5.6875 4.3125 C6.33074219 5.11300781 6.97398437 5.91351563 7.63671875 6.73828125 C8.08660156 7.48464844 8.53648437 8.23101562 9 9 C8.67 9.99 8.34 10.98 8 12 C6.66081194 10.37982158 5.3288031 8.75370657 4 7.125 C3.2575 6.22007812 2.515 5.31515625 1.75 4.3828125 C0 2 0 2 0 0 Z " fill="#F0EEEB" transform="translate(737,292)"/>
<path d="M0 0 C0.33 0.99 0.66 1.98 1 3 C-0.45505358 3.52992692 -1.91418127 4.0486789 -3.375 4.5625 C-4.59316406 4.99755859 -4.59316406 4.99755859 -5.8359375 5.44140625 C-8 6 -8 6 -10 5 C-6.8745041 2.35534962 -3.91211733 1.15585285 0 0 Z " fill="#F3EFE6" transform="translate(425,250)"/>
<path d="M0 0 C0.66 0 1.32 0 2 0 C1.46884894 4.51478398 -0.36620292 7.34666857 -3 11 C-4 8 -4 8 -3.22265625 5.95703125 C-2.83980469 5.24933594 -2.45695313 4.54164063 -2.0625 3.8125 C-1.68222656 3.09707031 -1.30195312 2.38164063 -0.91015625 1.64453125 C-0.60980469 1.10183594 -0.30945313 0.55914063 0 0 Z " fill="#FCF8ED" transform="translate(814,738)"/>
<path d="M0 0 C0.66 0.99 1.32 1.98 2 3 C-0.31 4.65 -2.62 6.3 -5 8 C-5.66 7.67 -6.32 7.34 -7 7 C-4.69 4.69 -2.38 2.38 0 0 Z " fill="#1B1C1D" transform="translate(311,267)"/>
<path d="M0 0 C0.66 0.33 1.32 0.66 2 1 C0.55746343 4.36591866 -1.33264727 6.51047079 -4 9 C-3.46930939 5.17902761 -2.50298434 2.93828597 0 0 Z " fill="#0C0F10" transform="translate(275,309)"/>
<path d="M0 0 C3.7952131 1.49097658 5.61042731 3.75700849 8 7 C5 7 5 7 2.3125 4.625 C0 2 0 2 0 0 Z " fill="#DFDDD5" transform="translate(685,303)"/>
<path d="M0 0 C0 1.66666667 0 3.33333333 0 5 C-2.3125 6.6875 -2.3125 6.6875 -5 8 C-5.99 7.67 -6.98 7.34 -8 7 C-5.36 4.69 -2.72 2.38 0 0 Z " fill="#261616" transform="translate(775,776)"/>
<path d="M0 0 C1.65 0 3.3 0 5 0 C3.71937515 1.7074998 2.38232443 3.37373596 1 5 C0.34 5 -0.32 5 -1 5 C-0.67 3.35 -0.34 1.7 0 0 Z " fill="#F28A51" transform="translate(769,777)"/>
<path d="M0 0 C2.125 0.9375 2.125 0.9375 4 2 C1.36 2.99 -1.28 3.98 -4 5 C-4 4.34 -4 3.68 -4 3 C-3.34 3 -2.68 3 -2 3 C-2 2.34 -2 1.68 -2 1 C-1.34 0.67 -0.68 0.34 0 0 Z " fill="#1B1B1B" transform="translate(364,813)"/>
<path d="M0 0 C3.82946843 1.45255699 5.12050295 3.42895561 7 7 C6.01 7.495 6.01 7.495 5 8 C0 2.25 0 2.25 0 0 Z " fill="#EEE9E2" transform="translate(730,284)"/>
</svg>
