<?xml version="1.0" encoding="UTF-8"?>
<svg version="1.1" xmlns="http://www.w3.org/2000/svg" width="1024" height="1024">
<path d="M0 0 C337.92 0 675.84 0 1024 0 C1024 337.92 1024 675.84 1024 1024 C686.08 1024 348.16 1024 0 1024 C0 686.08 0 348.16 0 0 Z " fill="#FCEBCE" transform="translate(0,0)"/>
<path d="M0 0 C0.87527344 -0.02835937 1.75054687 -0.05671875 2.65234375 -0.0859375 C5.0625 0.375 5.0625 0.375 6.81640625 2.0859375 C9.07291237 6.23111802 9.18826093 10.4038054 9.19672108 15.05191803 C9.20117892 16.19089334 9.20563676 17.32986865 9.21022969 18.50335836 C9.21004533 19.74994175 9.20986097 20.99652514 9.20967102 22.28088379 C9.212972 23.6221968 9.21669806 24.96350882 9.2208125 26.30481958 C9.23081316 29.98938278 9.23454614 33.67392969 9.23720181 37.35850453 C9.24111034 41.33265323 9.25068796 45.30678908 9.25941467 49.28092957 C9.27915846 58.8747936 9.28924039 68.46865865 9.29814246 78.06253791 C9.30252677 82.57964125 9.30789303 87.09674341 9.31313133 91.61384583 C9.33013775 106.62616482 9.34463405 121.63848309 9.35188007 136.65081024 C9.35378997 140.54471335 9.35571031 144.43861645 9.35766602 148.33251953 C9.35814976 149.30033027 9.3586335 150.26814101 9.3591319 151.26527935 C9.36744037 166.95911304 9.39279366 182.65287071 9.42524669 198.34667116 C9.45828628 214.45518191 9.47632582 230.56365396 9.47952431 246.67219877 C9.48169175 255.71834755 9.49047505 264.7643853 9.51598549 273.8105011 C9.53764975 281.51045148 9.54576387 289.21026385 9.53601871 296.91024125 C9.5314622 300.84002042 9.53343826 304.76951458 9.55278015 308.69925499 C9.5703281 312.29546899 9.56948307 315.89118827 9.55388286 319.48740691 C9.55036083 321.40717395 9.56659507 323.32694568 9.58348733 325.24664164 C9.57061599 326.9551046 9.57061599 326.9551046 9.55748463 328.69808197 C9.55894984 330.17207781 9.55894984 330.17207781 9.56044465 331.67585135 C8.91335286 335.18346395 7.55070179 336.85969866 5.0625 339.375 C1.08247551 340.53282531 -0.96585714 340.82843333 -4.75 339.0625 C-6.9375 337.375 -6.9375 337.375 -8.9375 335.375 C-9.19921303 333.11501884 -9.19921303 333.11501884 -9.2159729 330.22872925 C-9.23272001 328.58257205 -9.23272001 328.58257205 -9.24980545 326.90315914 C-9.25196438 325.68714299 -9.25412331 324.47112684 -9.25634766 323.21826172 C-9.26638195 321.93363572 -9.27641624 320.64900972 -9.28675461 319.32545567 C-9.31433934 315.74463018 -9.3293026 312.1638445 -9.34216642 308.58293986 C-9.35810431 304.7185038 -9.38525199 300.85414363 -9.41079712 296.98976135 C-9.45895959 289.39738328 -9.49565492 281.80498986 -9.52792275 274.21252912 C-9.55424349 268.03222212 -9.5840342 261.8519412 -9.61608887 255.67166138 C-9.73705913 232.19610125 -9.82969667 208.72050212 -9.90758657 185.244762 C-9.93067596 178.30942977 -9.95551349 171.37410525 -9.9810791 164.43878174 C-10.06345726 141.91648119 -10.12842589 119.39423922 -10.16328728 96.87181211 C-10.16473146 95.9393613 -10.16617563 95.0069105 -10.16766357 94.04620361 C-10.16908792 93.11721024 -10.17051227 92.18821687 -10.17197978 91.23107219 C-10.18268484 84.67638445 -10.20065817 78.12174024 -10.22149658 71.56707764 C-10.24671724 63.56455463 -10.26107067 55.56210039 -10.26143897 47.55953616 C-10.26186416 43.46676203 -10.26704239 39.37414217 -10.28508377 35.2814045 C-10.30144272 31.52912149 -10.3038304 27.77709802 -10.29507709 24.02479196 C-10.2939819 22.02175165 -10.30767475 20.01872015 -10.32187843 18.0157299 C-10.31630613 16.82403254 -10.31073383 15.63233517 -10.30499268 14.40452576 C-10.30645924 13.3776789 -10.3079258 12.35083204 -10.3094368 11.29286861 C-9.46076592 4.63498985 -6.88188833 0.10105563 0 0 Z " fill="#151717" transform="translate(325.9375,341.625)"/>
<path d="M0 0 C2.75329021 1.79562405 4.52627461 3.05254922 6 6 C6.09279506 7.73204571 6.1207863 9.46771182 6.1184845 11.20223999 C6.11940157 12.31064617 6.12031864 13.41905235 6.1212635 14.5610466 C6.1170986 15.78790806 6.11293369 17.01476952 6.10864258 18.27880859 C6.10811323 19.57296314 6.10758389 20.86711769 6.1070385 22.20048904 C6.10527652 25.79759733 6.0970258 29.39466559 6.08752418 32.99176073 C6.08013002 36.06317741 6.07623119 39.13459459 6.07232529 42.20601737 C6.06053356 51.39185864 6.03863183 60.57765926 6.01386261 69.76347351 C6.00217124 74.10802304 5.99181135 78.45257443 5.98194182 82.79712844 C5.93529278 103.27782848 5.86591534 123.75831513 5.76426506 144.23881912 C5.71877201 153.4565661 5.67925505 162.67426435 5.65356445 171.89208984 C5.63056259 180.14475616 5.597253 188.39730337 5.55129844 196.64987504 C5.52762061 200.95788088 5.5087205 205.26577191 5.50238609 209.57384109 C5.49632616 213.57210907 5.47629511 217.57006864 5.44572449 221.56822205 C5.4369978 223.0213901 5.43321043 224.47459843 5.43499184 225.9277916 C5.4491137 242.76345121 5.4491137 242.76345121 2 250 C-0.65297293 252.36405368 -2.42685468 253.4441696 -6 253.5 C-6.99 253.54640625 -6.99 253.54640625 -8 253.59375 C-11.14303994 252.66066002 -12.19309459 250.66141713 -14 248 C-14.60426807 245.19672012 -14.60426807 245.19672012 -14.74092102 242.12750244 C-14.79619272 240.97806404 -14.85146442 239.82862564 -14.90841103 238.64435577 C-15.06496615 232.41497534 -15.14785685 226.19121754 -15.14526367 219.95996094 C-15.14826579 218.49702368 -15.15167069 217.03408721 -15.15544128 215.57115173 C-15.16421517 211.61933182 -15.16661764 207.66753364 -15.16725707 203.71570492 C-15.16797554 201.210688 -15.17012544 198.70567631 -15.17275429 196.20066071 C-15.1820117 187.35300866 -15.18609186 178.50537157 -15.18530273 169.65771484 C-15.18477777 162.47898064 -15.19164087 155.30030205 -15.20581055 148.12158203 C-15.27451578 112.41142051 -15.24713182 76.71006345 -14.23456025 41.01155949 C-14.17643635 38.91426304 -14.12299775 36.81689333 -14.07069969 34.71944427 C-13.97330025 30.87515232 -13.8507958 27.03191393 -13.72387695 23.18847656 C-13.69619799 22.07611382 -13.66851902 20.96375107 -13.6400013 19.81768036 C-13.40658882 13.64414548 -12.95498319 7.55176608 -10 2 C-6.2626144 -0.4915904 -4.42668417 -0.45793285 0 0 Z " fill="#171818" transform="translate(610,386)"/>
<path d="M0 0 C2.56138156 1.65082968 3.5667503 2.40454743 5 5 C5.77023766 9.3605022 5.68958548 13.69008122 5.65942383 18.10839844 C5.66788039 19.46387829 5.67852109 20.819346 5.69116688 22.17479324 C5.71940894 25.8754992 5.71677 29.57562772 5.70886087 33.27640915 C5.70577137 37.21585107 5.73119133 41.1551157 5.75326538 45.09448242 C5.79137678 52.69126367 5.80342917 60.28786415 5.80622935 67.88473177 C5.81042819 76.59652143 5.84074838 85.30815764 5.87265217 94.01988268 C5.92856768 109.49940764 5.95945316 124.9788732 5.97635567 140.45848513 C5.99233934 154.77985324 6.04095476 169.10083458 6.10342598 183.42208099 C6.13724271 191.59990879 6.15850357 199.7777737 6.17943954 207.9556427 C6.18749536 210.74839286 6.19818212 213.54112314 6.2093811 216.3338623 C6.22569108 220.6113345 6.23192184 224.8886972 6.22951126 229.16619873 C6.23013838 230.68451468 6.23410912 232.20283379 6.24180222 233.72113037 C6.25149148 235.74342572 6.24761633 237.76577283 6.24291992 239.78808594 C6.24434494 240.9018158 6.24576996 242.01554565 6.24723816 243.1630249 C5.99750054 246.02868049 5.59914861 247.63090637 4 250 C0.24952518 252.50031654 -1.55856266 252.53603554 -6 252 C-9.47451609 249.2808135 -11.24801418 247.30732174 -12 243 C-12.14685336 240.94498152 -12.24329151 238.88616769 -12.30926514 236.82696533 C-12.35018909 235.55032391 -12.39111305 234.27368248 -12.43327713 232.95835495 C-12.47276182 231.53638192 -12.51157965 230.11439026 -12.54980469 228.69238281 C-12.58110544 227.5861531 -12.58110544 227.5861531 -12.61303854 226.45757532 C-13.18016 206.02972917 -13.18255585 185.59669483 -13.20018864 165.16244793 C-13.2031617 161.88137085 -13.20727236 158.60029693 -13.21169281 155.3192215 C-13.22525162 145.01222562 -13.23498605 134.70523732 -13.2388947 124.39823318 C-13.24341087 112.5655184 -13.26116977 100.7329171 -13.2898953 88.90023685 C-13.31148165 79.68594338 -13.3215966 70.47168205 -13.32293582 61.25736356 C-13.3239818 55.77804456 -13.3298516 50.298834 -13.34775543 44.81954193 C-13.36419315 39.69409041 -13.36641273 34.56882973 -13.35761642 29.44336128 C-13.35684498 27.56560569 -13.36120284 25.6878399 -13.37107468 23.81011009 C-13.38375946 21.24766955 -13.3779377 18.68590978 -13.36749268 16.12347412 C-13.37554908 15.38206263 -13.38360548 14.64065114 -13.39190602 13.87677264 C-13.34720714 9.18876647 -12.46065915 5.98922835 -10 2 C-6.85837151 -0.38330438 -3.85102133 -0.5501459 0 0 Z " fill="#131616" transform="translate(363,386)"/>
<path d="M0 0 C4.32059404 4.69093067 3.35272008 11.69936045 3.39282227 17.77539062 C3.40271053 18.71366825 3.4125988 19.65194588 3.42278671 20.61865616 C3.45451599 23.75616179 3.4793052 26.89368095 3.50390625 30.03125 C3.52477414 32.27972698 3.54595592 34.52820107 3.56742859 36.77667236 C3.62391386 42.8728202 3.67343579 48.96900435 3.72053528 55.06523132 C3.74995654 58.86938125 3.78046872 62.67352123 3.81115723 66.47766113 C3.95435822 84.43376633 4.07289355 102.38996638 4.17584324 120.34634018 C4.18747117 122.36998304 4.19925164 124.39362498 4.21105194 126.41726685 C4.30853409 143.22107852 4.38143061 160.02479858 4.41867065 176.82885742 C4.42976331 181.68909351 4.4476303 186.54923269 4.47122192 191.40942383 C4.49840378 197.12483604 4.51084515 202.84008983 4.51163673 208.55556488 C4.51426484 210.65026879 4.52196338 212.74497339 4.53510094 214.83963776 C4.55206617 217.69503979 4.55040126 220.54984209 4.54394531 223.40527344 C4.55316293 224.23343819 4.56238054 225.06160294 4.57187748 225.91486359 C4.53642679 230.80622181 3.87298143 234.12613591 1.1875 238.375 C-1.85587438 240.99568349 -3.33326799 241.375 -7.375 241.375 C-11.57619172 240.15283514 -12.50656738 239.03838808 -14.8125 235.375 C-15.32030869 232.04589176 -15.32030869 232.04589176 -15.33148193 228.17384338 C-15.33898319 227.45882076 -15.34648444 226.74379813 -15.354213 226.00710815 C-15.37448395 223.61455 -15.36638749 221.22294044 -15.35839844 218.83032227 C-15.36713736 217.11113043 -15.37762426 215.39194673 -15.38972473 213.67277527 C-15.41766545 208.99238178 -15.42098642 204.31225233 -15.42000484 199.63178754 C-15.42314892 194.68846179 -15.44882755 189.74525188 -15.47198486 184.80198669 C-15.51264945 175.3867256 -15.53289078 165.97153344 -15.54595876 156.55619806 C-15.56156696 146.02869887 -15.60008016 135.50132723 -15.64055204 124.97389901 C-15.68962993 112.05168197 -15.73313027 99.12944599 -15.76263428 86.20716858 C-15.76472609 85.29268867 -15.76681791 84.37820876 -15.76897311 83.43601733 C-15.77861392 78.91258493 -15.78526928 74.389174 -15.78670883 69.86573124 C-15.79060315 61.2023041 -15.81323187 52.54009338 -15.89373946 43.87698776 C-15.93147223 39.6300773 -15.95760445 35.38313276 -15.98238611 31.13612926 C-15.99723422 29.10217802 -16.01743729 27.06825792 -16.04332876 25.03441727 C-16.07876554 22.21275353 -16.09546285 19.39153149 -16.10821533 16.56968689 C-16.12345009 15.73985176 -16.13868485 14.91001664 -16.15438128 14.055035 C-16.15423454 8.74735157 -15.30473641 5.08689834 -12.8125 0.375 C-8.81746331 -2.79347737 -4.27139553 -2.46791742 0 0 Z " fill="#131515" transform="translate(297.8125,392.625)"/>
<path d="M0 0 C2.48692795 1.90831384 2.98398734 2.95196203 4 6 C4.09050036 8.59869471 4.12298312 11.16958307 4.10864258 13.76806641 C4.10811323 14.57762661 4.10758389 15.38718681 4.1070385 16.22127914 C4.10376212 18.97307455 4.09297862 21.72478758 4.08203125 24.4765625 C4.07746861 26.46831188 4.07323148 28.46006203 4.06929016 30.45181274 C4.0563544 36.06926483 4.03582797 41.68666922 4.01386261 47.30409241 C3.99958775 51.10991046 3.9875342 54.91573028 3.97601318 58.72155762 C3.92810049 74.20732851 3.85978307 89.69284823 3.76426506 105.17840195 C3.71885986 112.58620703 3.67936293 119.99395371 3.65356445 127.40185547 C3.63058096 134.00041342 3.59727133 140.59882206 3.55129844 147.19726145 C3.52755411 150.65148154 3.50869798 154.10555678 3.50238609 157.55985641 C3.49278843 161.36874704 3.46481008 165.17708487 3.43237305 168.98583984 C3.43380814 170.1055719 3.43524323 171.22530396 3.4367218 172.37896729 C3.35506284 179.14210043 3.01928502 184.77248843 -1.8125 189.9375 C-4.84434326 191.41010958 -6.66670553 191.54421134 -10 191 C-13.41838616 188.26529107 -15.27351601 186.29473073 -16 182 C-16.09082058 180.0475716 -16.1262763 178.09229582 -16.12698364 176.13775635 C-16.12980347 174.93847504 -16.13262329 173.73919373 -16.13552856 172.50357056 C-16.13249222 170.53388809 -16.13249222 170.53388809 -16.12939453 168.52441406 C-16.13075008 167.12435867 -16.13253088 165.72430363 -16.13470459 164.32424927 C-16.13926905 160.5172021 -16.13749117 156.710182 -16.1343255 152.90313435 C-16.13178685 148.89715313 -16.13414456 144.89117418 -16.13571167 140.88519287 C-16.13753317 134.13634835 -16.13513195 127.38751474 -16.13037109 120.63867188 C-16.12497258 112.8978455 -16.12665873 105.15704564 -16.1321975 97.41621995 C-16.13678235 90.73556237 -16.13735197 84.05491264 -16.13475883 77.37425399 C-16.13321953 73.40078663 -16.13293539 69.42733156 -16.13629532 65.45386505 C-16.17819868 7.78817162 -16.17819868 7.78817162 -12.5625 1.5 C-8.62811862 -0.80305251 -4.44864344 -0.82437299 0 0 Z " fill="#141616" transform="translate(645,417)"/>
<path d="M0 0 C3.23613354 1.74253345 3.82395315 2.47185944 5 6 C6.13311942 15.4548751 6.15418701 24.96144554 6.16113281 34.46972656 C6.16577471 35.97426471 6.17080115 37.47880171 6.17617798 38.9833374 C6.18915926 43.02849703 6.19571688 47.07364019 6.20018864 51.11881733 C6.20313849 53.65220924 6.20724637 56.18559682 6.21169281 58.71898651 C6.22532085 66.6644616 6.23501423 74.60992658 6.2388947 82.55541253 C6.24338485 91.69479887 6.26099667 100.83403637 6.2898953 109.97337747 C6.31153733 117.06586898 6.32160008 124.15831864 6.32293582 131.25084281 C6.32398066 135.47582242 6.32982168 139.70066121 6.34775543 143.92560577 C6.36428332 147.89515267 6.36636893 151.86445339 6.35761642 155.83402252 C6.35684897 157.2847866 6.36115004 158.73556422 6.37107468 160.18629456 C6.47239249 175.92628638 6.47239249 175.92628638 3 182 C-0.09780948 184.06520632 -0.9540481 184.29477024 -4.5 184.3125 C-5.66015625 184.33763672 -5.66015625 184.33763672 -6.84375 184.36328125 C-9 184 -9 184 -10.71875 182.85546875 C-13.62954929 178.64013441 -13.1349866 172.91604432 -13.17167664 167.97215271 C-13.17802574 167.28860075 -13.18437485 166.60504878 -13.19091636 165.90078312 C-13.21086688 163.62323877 -13.22398345 161.34570864 -13.23706055 159.06811523 C-13.24992234 157.43004049 -13.26317705 155.79196879 -13.27679443 154.15390015 C-13.31231741 149.71400386 -13.34159598 145.2740877 -13.36918616 140.83413577 C-13.38671138 138.05976028 -13.40558402 135.28539732 -13.42493629 132.51103401 C-13.49242033 122.83135751 -13.55482401 113.15166332 -13.61254883 103.47192383 C-13.66649079 94.44911447 -13.73160118 85.42643204 -13.80188721 76.40373653 C-13.86176025 68.65417294 -13.91382455 60.90458233 -13.95981437 53.15492398 C-13.98740997 48.52755784 -14.01818301 43.90026601 -14.05682945 39.27297783 C-14.09288832 34.92361132 -14.11923719 30.57429318 -14.1381073 26.22481918 C-14.14668284 24.62884696 -14.15872652 23.03288904 -14.17449379 21.43697166 C-14.19547889 19.25819934 -14.20394166 17.07972244 -14.20927429 14.90086365 C-14.2171934 13.6817501 -14.22511251 12.46263655 -14.2332716 11.20658016 C-13.93713363 7.13583117 -13.1135203 4.24200341 -10.375 1.1875 C-6.91494652 -0.54252674 -3.79647489 -0.58467272 0 0 Z " fill="#141516" transform="translate(574,420)"/>
<path d="M0 0 C3.03215675 2.19831364 3.81654398 3.44963194 5 7 C5.10054605 9.21020777 5.13939669 11.42336906 5.14717102 13.635849 C5.15084771 14.3134597 5.1545244 14.99107041 5.1583125 15.68921477 C5.16934445 17.96461111 5.17319228 20.23996178 5.17700195 22.51538086 C5.1832668 24.14478195 5.18991361 25.77418162 5.19691467 27.40357971 C5.21431815 31.83327646 5.2248739 36.26296243 5.2331202 40.69268489 C5.23827004 43.45882209 5.24434567 46.22495594 5.25063133 48.99109077 C5.26967861 57.64191663 5.2839127 66.29273396 5.2922433 74.94357675 C5.30202558 84.93722601 5.32837278 94.93065437 5.36874419 104.92422575 C5.3988664 112.64488127 5.41370832 120.36547331 5.41702431 128.08618647 C5.41937856 132.69964145 5.42838793 137.31286029 5.45348549 141.92625237 C5.47670432 146.26422042 5.48102461 150.6017958 5.47072411 154.9398098 C5.47022718 156.53296461 5.4765937 158.12613836 5.49028015 159.71923447 C5.50790723 161.89235339 5.50094026 164.06404881 5.48774719 166.23716736 C5.49013555 167.45372481 5.4925239 168.67028227 5.49498463 169.9237051 C4.9044013 173.59413922 3.90937748 174.76290619 1 177 C-1.74689894 177.72964503 -4.22119273 177.5489002 -7 177 C-10.91625598 174.52657517 -11.55279914 171.55312763 -12.58570099 167.17733192 C-13.22103122 163.83837922 -13.3522576 160.51699412 -13.40527344 157.12963867 C-13.42401268 156.37252657 -13.44275192 155.61541447 -13.46205902 154.83535957 C-13.52121555 152.30050247 -13.56590169 149.76564041 -13.609375 147.23046875 C-13.64674036 145.38917276 -13.68424046 143.5478795 -13.72186279 141.70658875 C-14.17197123 118.16840262 -14.22303026 94.62453734 -14.24023438 71.08276367 C-14.24582989 64.51549711 -14.2701784 57.94842648 -14.29820633 51.38122272 C-14.31678075 46.26402684 -14.3220344 41.1468803 -14.32357025 36.02965355 C-14.32658316 33.60439101 -14.33456528 31.17912907 -14.34775543 28.75390053 C-14.36478835 25.39737649 -14.36294827 22.041364 -14.35644531 18.68481445 C-14.3656601 17.70063034 -14.37487488 16.71644623 -14.3843689 15.70243835 C-14.34998708 10.04398639 -13.75981643 5.98454336 -11 1 C-7.54968739 -0.72515631 -3.77283696 -0.49677924 0 0 Z " fill="#141516" transform="translate(398,424)"/>
<path d="M0 0 C3.63326962 2.52749191 4.82677707 4.04950502 5.62373352 8.42250061 C6.19301645 14.01676893 6.14752472 19.62242335 6.14526367 25.23999023 C6.14862228 26.44589813 6.1519809 27.65180603 6.15544128 28.89425659 C6.16327968 32.18148233 6.16661681 35.46867002 6.16725707 38.75590396 C6.16797076 40.81437938 6.17011104 42.8728483 6.17275429 44.9313221 C6.18198659 52.12584983 6.18609166 59.32035912 6.18530273 66.51489258 C6.1847019 73.20071234 6.19526032 79.88645143 6.2110464 86.57225078 C6.22415548 92.33131996 6.22948525 98.09036287 6.22884732 103.84944683 C6.22859341 107.28081391 6.23138567 110.71210914 6.24202538 114.14346123 C6.25184621 117.97258036 6.248939 121.80149262 6.24291992 125.63061523 C6.24853943 126.75453171 6.25415894 127.87844818 6.25994873 129.03642273 C6.19907521 144.31224141 6.19907521 144.31224141 2.3125 149.0625 C-0.9765157 150.39588474 -3.48592969 150.37650753 -7 150 C-10.1850357 148.23984869 -10.83296972 147.50109084 -12 144 C-12.12095096 140.95433133 -12.1855058 137.92993991 -12.20532227 134.88330078 C-12.21522186 133.94743134 -12.22512146 133.01156189 -12.23532104 132.04733276 C-12.26706186 128.93001866 -12.29180244 125.8126905 -12.31640625 122.6953125 C-12.33702409 120.50136975 -12.35802164 118.30743054 -12.37937927 116.11349487 C-12.42344331 111.48470147 -12.46430581 106.85589475 -12.50268555 102.22705078 C-12.55095688 96.41035559 -12.60475256 90.59373016 -12.66060829 84.77710342 C-12.76756501 73.62842752 -12.85890385 62.47976707 -12.93166542 51.33081436 C-12.97199304 45.3232025 -13.02789884 39.31608828 -13.10088825 33.30878639 C-13.14085995 29.82053305 -13.16891224 26.33225922 -13.19370842 22.84386826 C-13.20763535 21.25306615 -13.22676204 19.6622998 -13.25146675 18.07162857 C-13.28424977 15.91984023 -13.29863662 13.76869662 -13.30834961 11.61669922 C-13.32127548 10.42567596 -13.33420135 9.23465271 -13.34751892 8.00753784 C-12.96352095 4.68429885 -12.36042494 3.33315663 -10 1 C-6.36217368 -0.21260877 -3.82264001 -0.39544552 0 0 Z " fill="#131515" transform="translate(261,437)"/>
<path d="M0 0 C2.50160818 1.87620613 3.61945652 3.23891303 5 6 C5.09411656 7.45549083 5.12629723 8.91521835 5.12698364 10.37374878 C5.12980347 11.29312729 5.13262329 12.2125058 5.13552856 13.15974426 C5.13350433 14.17163315 5.1314801 15.18352203 5.12939453 16.22607422 C5.13114685 17.28973709 5.13289917 18.35339996 5.13470459 19.44929504 C5.13912398 22.98444222 5.13618271 26.51953976 5.1328125 30.0546875 C5.13348601 32.51172902 5.13445644 34.96877048 5.13571167 37.42581177 C5.13718917 42.58921947 5.13503427 47.75260992 5.13037109 52.91601562 C5.12470367 59.51077098 5.12793342 66.10548537 5.13394356 72.70023918 C5.13757338 77.78254499 5.13639897 82.86484126 5.13381577 87.94714737 C5.13315162 90.3766391 5.13395688 92.80613171 5.13629532 95.23562241 C5.13885827 98.6504314 5.13492903 102.0651762 5.12939453 105.47998047 C5.13141876 106.47162704 5.13344299 107.46327362 5.13552856 108.48497009 C5.07355251 129.31147143 5.07355251 129.31147143 0 135 C-3.13400885 136.56700442 -6.63155095 136.85164561 -10 136 C-12.55749412 133.80290354 -13.85063016 131.97427378 -14.36658859 128.60890388 C-14.50811132 125.50883436 -14.51716506 122.4315868 -14.48583984 119.32836914 C-14.48963654 118.14734116 -14.49343323 116.96631317 -14.49734497 115.74949646 C-14.5034779 112.51783676 -14.49176046 109.28685381 -14.47143888 106.05527043 C-14.45383127 102.66815558 -14.45739372 99.28105693 -14.4581604 95.89390564 C-14.45628876 90.20529948 -14.43894545 84.516907 -14.41162109 78.82836914 C-14.3801868 72.26011494 -14.36962449 65.69209477 -14.3710922 59.12377077 C-14.37244554 52.12057124 -14.35854795 45.11746144 -14.34019899 38.11428905 C-14.33594529 36.10134141 -14.33451784 34.08840834 -14.33372116 32.07545662 C-14.32938337 28.31719414 -14.31187084 24.55922483 -14.29052734 20.80102539 C-14.29143372 19.68966217 -14.29234009 18.57829895 -14.29327393 17.43325806 C-14.19848074 6.01414896 -14.19848074 6.01414896 -10.65234375 1.15234375 C-7.4583667 -1.07513433 -3.70980471 -0.62389121 0 0 Z " fill="#131515" transform="translate(775,445)"/>
<path d="M0 0 C2.87061422 1.6585771 3.63109876 2.11316391 5 5 C5.71845278 9.66466034 5.92981208 14.2846479 6 19 C9.41340266 19.76653608 12.582339 20.13137393 16.078125 20.15771484 C17.55490723 20.17310806 17.55490723 20.17310806 19.06152344 20.18881226 C20.1137207 20.19611359 21.16591797 20.20341492 22.25 20.2109375 C24.48959079 20.23899441 26.72917403 20.26765879 28.96875 20.296875 C32.49088421 20.33819613 36.01287573 20.37509603 39.53515625 20.40136719 C42.94039724 20.42895154 46.34500326 20.47480816 49.75 20.5234375 C51.3282959 20.5283168 51.3282959 20.5283168 52.93847656 20.53329468 C62.16078 20.68847767 62.16078 20.68847767 66 24 C68.023815 27.0357225 68.33774253 27.95772487 68.4375 31.4375 C68.49744141 32.58025391 68.49744141 32.58025391 68.55859375 33.74609375 C67.71980524 37.13057608 65.84814966 38.09876416 63 40 C60.23478699 40.48101807 60.23478699 40.48101807 57.19995117 40.45410156 C56.05914597 40.45379944 54.91834076 40.45349731 53.7429657 40.45318604 C52.52196671 40.43254089 51.30096771 40.41189575 50.04296875 40.390625 C48.78486893 40.38496521 47.5267691 40.37930542 46.23054504 40.37347412 C42.89777215 40.35490044 39.56610784 40.31901116 36.23364258 40.2746582 C32.82838485 40.23362121 29.42301225 40.21544527 26.01757812 40.1953125 C19.34474707 40.1512313 12.6724375 40.08430697 6 40 C5.82984375 40.89203125 5.6596875 41.7840625 5.484375 42.703125 C5.12085938 44.45882812 5.12085938 44.45882812 4.75 46.25 C4.51796875 47.41015625 4.2859375 48.5703125 4.046875 49.765625 C2.90942975 53.27982153 1.93083569 54.7924967 -1 57 C-5.77373727 57.60618886 -7.83971856 57.71591834 -11.9375 55.1875 C-15.5464449 51.35983117 -15.17372221 47.37486438 -15.203125 42.40234375 C-15.20882507 41.65344376 -15.21452515 40.90454376 -15.22039795 40.13294983 C-15.22984294 38.54510913 -15.23637995 36.95724888 -15.24023438 35.36938477 C-15.24986747 32.97050329 -15.28086365 30.57250592 -15.3125 28.17382812 C-15.44366543 9.27849341 -15.44366543 9.27849341 -9.9375 2.4375 C-6.51020291 -0.10533332 -4.27314976 -0.5027235 0 0 Z " fill="#161717" transform="translate(844,483)"/>
<path d="M0 0 C2.67485727 2.0057617 4.68115616 3.63184726 5.46415901 6.99169731 C5.64437909 9.46563853 5.66407374 11.89631725 5.63110352 14.37670898 C5.63825882 15.31389771 5.64541412 16.25108643 5.65278625 17.2166748 C5.66967522 20.31031248 5.65026752 23.40250133 5.62890625 26.49609375 C5.629735 28.64933899 5.63219459 30.80258416 5.63621521 32.95582581 C5.63907345 37.46757054 5.6243702 41.97881893 5.59692383 46.49047852 C5.56286195 52.26879581 5.56885247 58.04622434 5.5875864 63.82458401 C5.5981648 68.27105592 5.58921049 72.71732173 5.57420158 77.16377449 C5.56902413 79.29399058 5.56949626 81.42422824 5.57574654 83.55444145 C5.58120791 86.53472898 5.56079258 89.51375298 5.53344727 92.49389648 C5.53997314 93.37149124 5.54649902 94.249086 5.55322266 95.15327454 C5.46706204 100.68671596 4.65355286 103.76975454 1 108 C-2.41285423 109.06651695 -5.52618217 108.76874837 -9 108 C-12.88858877 104.77531663 -13.38817396 101.85326936 -14 97 C-14.09063952 94.33806055 -14.13687495 91.70317771 -14.12939453 89.04199219 C-14.13114685 88.26713974 -14.13289917 87.49228729 -14.13470459 86.69395447 C-14.13908768 84.14490485 -14.13619645 81.59592527 -14.1328125 79.046875 C-14.13348683 77.26336656 -14.13445793 75.47985822 -14.13571167 73.6963501 C-14.13718408 69.96080652 -14.13504977 66.22528688 -14.13037109 62.48974609 C-14.12469067 57.72438002 -14.127945 52.95907049 -14.13394356 48.19370651 C-14.13757566 44.50976138 -14.13639817 40.8258294 -14.13381577 37.14188385 C-14.13315295 35.38618208 -14.13395213 33.63047908 -14.13629532 31.87477875 C-14.16307066 6.16220762 -14.16307066 6.16220762 -10 1 C-6.84203893 -0.57898053 -3.39329364 -0.81928171 0 0 Z " fill="#141616" transform="translate(677,457)"/>
<path d="M0 0 C3.30467549 2.78831995 3.4374446 5.84943745 4 10 C4.0985196 12.38113644 4.14799537 14.7645676 4.16113281 17.14770508 C4.16609772 17.83638168 4.17106262 18.52505829 4.17617798 19.23460388 C4.19069453 21.49625678 4.19758372 23.75783956 4.203125 26.01953125 C4.20595238 26.79713995 4.20877975 27.57474865 4.21169281 28.37592125 C4.22664243 32.49060781 4.23589872 36.60525969 4.24023438 40.7199707 C4.2457145 44.94971759 4.26974485 49.17914186 4.29820633 53.40878773 C4.3169142 56.68007815 4.32204261 59.95129207 4.32357025 63.22263145 C4.32657865 64.78101046 4.33454524 66.3393887 4.34775543 67.89771461 C4.47274072 83.77362071 4.47274072 83.77362071 1 91 C-2.66222561 93.32892349 -5.69798451 93.46093023 -10 93 C-12.36497439 91.13291495 -13.66030715 89.67938569 -15 87 C-15.11384283 84.39734875 -15.16782238 81.820829 -15.17700195 79.21728516 C-15.18357315 78.41387192 -15.19014435 77.61045868 -15.19691467 76.78269958 C-15.21666134 74.118153 -15.22831239 71.45366277 -15.23828125 68.7890625 C-15.24235678 67.88018658 -15.2464323 66.97131065 -15.25063133 66.03489304 C-15.27149646 61.22573828 -15.28579708 56.41661212 -15.29516602 51.60742188 C-15.30624022 46.63490307 -15.34065036 41.66283057 -15.38033772 36.69046974 C-15.40645298 32.87121739 -15.41485324 29.05207229 -15.41844749 25.23273849 C-15.42332551 23.39947872 -15.43497393 21.56622411 -15.45348549 19.7330513 C-15.4777725 17.16883966 -15.47693154 14.60579477 -15.4699707 12.04150391 C-15.48278076 11.2829158 -15.49559082 10.5243277 -15.50878906 9.74275208 C-15.47405686 6.23651207 -15.28392807 4.36380012 -13.09562683 1.55990601 C-8.74250327 -1.68039589 -5.15975858 -1.21183321 0 0 Z " fill="#131515" transform="translate(434,466)"/>
<path d="M0 0 C1.42532889 -0.00322464 2.85065747 -0.00658955 4.27598572 -0.01008606 C7.23144297 -0.01600925 10.18687124 -0.0179325 13.14233398 -0.01733398 C16.92153671 -0.01723142 20.70055555 -0.03101037 24.47971439 -0.04810619 C27.40940709 -0.05922468 30.33905477 -0.06125343 33.2687664 -0.06072426 C34.66297491 -0.0618997 36.05718474 -0.06629689 37.45137215 -0.07405663 C39.39341926 -0.08387604 41.33552178 -0.07970917 43.27758789 -0.07495117 C44.37897598 -0.07637619 45.48036407 -0.07780121 46.61512756 -0.07926941 C50.88220357 0.2753809 53.65207012 1.07389951 56.46484375 4.35546875 C57.96466899 8.10503185 57.64574858 10.29631771 56.58984375 14.16796875 C54.69873264 16.48610495 53.25156344 17.8371089 50.58984375 19.16796875 C48.08507325 19.31091705 45.60532474 19.3955915 43.09838867 19.43676758 C42.32584244 19.45309235 41.5532962 19.46941711 40.75733948 19.48623657 C38.19507082 19.53834798 35.63275823 19.58252781 33.0703125 19.625 C32.19578241 19.64010809 31.32125233 19.65521618 30.42022133 19.67078209 C25.7915371 19.74993858 21.16279912 19.82256439 16.53393555 19.89038086 C11.75185416 19.9618537 6.9705414 20.05684731 2.18899059 20.15715504 C-1.48687311 20.22981012 -5.16284863 20.28444429 -8.83908653 20.33423424 C-10.60183188 20.3613194 -12.36448554 20.39528086 -14.12696266 20.43625832 C-16.59496028 20.49201761 -19.06203473 20.52213964 -21.53051758 20.54614258 C-22.25745819 20.56830338 -22.9843988 20.59046417 -23.73336792 20.61329651 C-27.36050296 20.62117273 -29.27375154 20.25610926 -32.35185242 18.26713562 C-35.06379142 15.50135711 -35.30057611 13.86503923 -35.55078125 10.1328125 C-35.33841063 7.16552295 -34.27824568 5.43636305 -32.41015625 3.16796875 C-24.19350733 -2.3097972 -9.64765241 0.00522792 0 0 Z " fill="#1A1C1B" transform="translate(145.41015625,502.83203125)"/>
<path d="M0 0 C3.44312714 2.1244827 4.71617547 3.14852641 6 7 C6.10596424 9.45239744 6.15722348 11.87680173 6.16113281 14.32958984 C6.16609772 15.07302139 6.17106262 15.81645294 6.17617798 16.58241272 C6.19078355 19.04193039 6.1975987 21.50138358 6.203125 23.9609375 C6.20887752 25.6710307 6.21463524 27.38112388 6.22039795 29.09121704 C6.23090319 32.67735087 6.23674906 36.26346232 6.24023438 39.84960938 C6.2457199 44.44190923 6.26975108 49.03391272 6.29820633 53.62611961 C6.3168409 57.15889345 6.32203873 60.69159599 6.32357025 64.22441483 C6.32659516 65.91727952 6.33461828 67.61014302 6.34775543 69.30295944 C6.3648343 71.67274207 6.36293153 74.04180168 6.35644531 76.41162109 C6.3656601 77.10893845 6.37487488 77.8062558 6.3843689 78.52470398 C6.34728287 82.85602383 5.66061885 85.56366394 3 89 C-0.7373856 91.4915904 -2.57331583 91.45793285 -7 91 C-10.38939556 88.86320715 -11.72582557 87.8225233 -13 84 C-13.10081098 81.58314796 -13.14685012 79.19508112 -13.14526367 76.77807617 C-13.14862228 76.04600449 -13.1519809 75.3139328 -13.15544128 74.55967712 C-13.16494653 72.13742377 -13.16689432 69.7152396 -13.16796875 67.29296875 C-13.17118213 65.60769116 -13.17454627 63.92241385 -13.17805481 62.23713684 C-13.18404537 58.70227411 -13.18589484 55.16743581 -13.18530273 51.63256836 C-13.18520123 47.10993413 -13.1988414 42.58745731 -13.21607494 38.06486034 C-13.22721228 34.58265976 -13.22922139 31.10049698 -13.22869301 27.61828041 C-13.22987097 25.951373 -13.23428243 24.28446454 -13.24202538 22.61757469 C-13.25185826 20.28164138 -13.24893409 17.94604656 -13.24291992 15.61010742 C-13.24853943 14.92573608 -13.25415894 14.24136475 -13.25994873 13.53625488 C-13.23251888 9.32881936 -12.7072493 5.85828254 -11 2 C-7.31106884 -0.45928744 -4.28358579 -0.69305579 0 0 Z " fill="#131515" transform="translate(808,466)"/>
<path d="M0 0 C2.69990662 1.79993774 4.5418865 3.083773 6 6 C6.12293474 7.45533807 6.18730208 8.91584871 6.22119141 10.37597656 C6.24436432 11.28583313 6.26753723 12.1956897 6.29141235 13.13311768 C6.3112619 14.12559509 6.33111145 15.11807251 6.3515625 16.140625 C6.37471527 17.17322449 6.39786804 18.20582397 6.42172241 19.26971436 C6.46947927 21.4722381 6.51469854 23.67481807 6.55761719 25.87744141 C6.62334678 29.16725522 6.70170931 32.45658895 6.78125 35.74609375 C7.01272445 46.24872628 7.0835188 56.73423608 6.7109375 67.234375 C6.68705963 68.13391907 6.66318176 69.03346313 6.63858032 69.96026611 C6.41453987 74.97913308 5.82194969 78.68111712 3 83 C-0.68893116 85.45928744 -3.71641421 85.69305579 -8 85 C-11.44312714 82.8755173 -12.71617547 81.85147359 -14 78 C-14.08422116 76.57341381 -14.11332211 75.14316489 -14.10644531 73.71411133 C-14.10457214 72.85138107 -14.10269897 71.98865082 -14.10076904 71.09977722 C-14.08956024 69.69880547 -14.08956024 69.69880547 -14.078125 68.26953125 C-14.07371399 67.29409866 -14.06930298 66.31866608 -14.0647583 65.31367493 C-14.04858172 62.20905748 -14.02453863 59.10456147 -14 56 C-13.98887787 54.04085317 -13.97780909 52.08170604 -13.96679688 50.12255859 C-13.93444833 45.2840609 -13.87146406 40.44659112 -13.79248047 35.60864258 C-13.76382306 33.63803423 -13.74283837 31.66730136 -13.72900391 29.6965332 C-13.7075269 26.78019416 -13.66100603 23.86516118 -13.609375 20.94921875 C-13.60814636 20.08036545 -13.60691772 19.21151215 -13.60565186 18.31632996 C-13.4624415 12.29377857 -12.25331191 7.14801756 -9 2 C-5.48746854 -0.34168764 -4.13530644 -0.49623677 0 0 Z " fill="#131515" transform="translate(539,470)"/>
<path d="M0 0 C3.15954305 2.54137159 4.71540886 4.14622659 6 8 C6.23351049 10.45232013 6.41610051 12.88181892 6.55078125 15.33984375 C6.61353996 16.45612404 6.61353996 16.45612404 6.67756653 17.59495544 C7.12528025 26.32237109 7.18607725 35.0500531 7.18530273 43.78735352 C7.18752241 46.59080488 7.20586334 49.39388163 7.22460938 52.19726562 C7.22753885 54.00781118 7.22952662 55.81835857 7.23046875 57.62890625 C7.23765427 58.45298477 7.24483978 59.27706329 7.25224304 60.12611389 C7.22685784 66.60640421 6.69384073 73.02989228 2.875 78.5 C0.0333399 80.97100879 -0.54798328 81.44534522 -4.0625 81.6875 C-8 81 -8 81 -10.4375 78.75 C-12.85960908 74.48708801 -13.12722672 71.05410205 -13.14526367 66.1809082 C-13.15164352 65.00901443 -13.15802338 63.83712067 -13.16459656 62.62971497 C-13.16570938 61.36616684 -13.1668222 60.10261871 -13.16796875 58.80078125 C-13.17129715 57.49602341 -13.17462555 56.19126556 -13.17805481 54.8469696 C-13.18403795 52.08392511 -13.1858957 49.32091184 -13.18530273 46.55786133 C-13.1852015 43.03883019 -13.1988171 39.52000257 -13.21607494 36.00101948 C-13.22995906 32.62177086 -13.22928631 29.24255796 -13.23046875 25.86328125 C-13.23765427 24.60985428 -13.24483978 23.35642731 -13.25224304 22.0650177 C-13.20985173 5.70092989 -13.20985173 5.70092989 -9.3125 0.9375 C-5.93631315 -0.4312244 -3.60956333 -0.50660538 0 0 Z " fill="#131515" transform="translate(228,471)"/>
<path d="M0 0 C2.63016161 2.1727422 4.47336894 3.94673788 6 7 C6.10652143 8.90826587 6.14883481 10.82024825 6.16113281 12.73144531 C6.17074036 13.93319397 6.1803479 15.13494263 6.19024658 16.37310791 C6.19449646 17.67826355 6.19874634 18.98341919 6.203125 20.328125 C6.20887807 21.67852785 6.21463578 23.02893068 6.22039795 24.3793335 C6.2309097 27.21399313 6.23675063 30.0486244 6.24023438 32.88330078 C6.24570734 36.50589895 6.26970841 40.12811901 6.29820633 43.75059891 C6.31688641 46.54224722 6.32204123 49.33380565 6.32357025 52.12551117 C6.32804995 54.10742041 6.34667441 56.08928144 6.36553955 58.07110596 C6.36253845 59.28546326 6.35953735 60.49982056 6.35644531 61.75097656 C6.36009094 62.81527893 6.36373657 63.8795813 6.36749268 64.97613525 C5.85469495 69.19562331 4.06055431 72.32544057 1.8125 75.875 C-1.2708328 77.78879277 -4.54386904 77.62655006 -8 77 C-10.8100346 75.20636089 -12.50940468 73.98119065 -14 71 C-14.10602099 69.24073577 -14.14879023 67.47750065 -14.16113281 65.71508789 C-14.17074036 64.6095607 -14.1803479 63.50403351 -14.19024658 62.36500549 C-14.19449646 61.16303024 -14.19874634 59.96105499 -14.203125 58.72265625 C-14.20882507 57.48639999 -14.21452515 56.25014374 -14.22039795 54.97642517 C-14.22986311 52.35107278 -14.23638792 49.72570843 -14.24023438 47.1003418 C-14.24674609 43.11034979 -14.28087162 39.12073042 -14.3125 35.13085938 C-14.31903557 32.57812805 -14.32428386 30.02539305 -14.328125 27.47265625 C-14.3404718 26.28889908 -14.3528186 25.10514191 -14.36553955 23.88551331 C-14.34667218 16.75690934 -14.05478705 9.56658558 -11 3 C-7.43522271 -0.33570826 -4.84731176 -0.68032446 0 0 Z " fill="#141617" transform="translate(742,475)"/>
<path d="M0 0 C2.68197424 1.98556079 4.6627871 3.57101502 5.45410156 6.92431641 C5.62856667 9.24575976 5.64076997 11.51620354 5.59375 13.84375 C5.59379028 14.69046265 5.59383057 15.53717529 5.59387207 16.4095459 C5.58852473 18.19481859 5.57097543 19.9800913 5.54199219 21.76513672 C5.50013366 24.49129495 5.50092635 27.21498074 5.5078125 29.94140625 C5.49731911 31.67970459 5.4843802 33.41799025 5.46875 35.15625 C5.46854858 35.96783569 5.46834717 36.77942139 5.46813965 37.61560059 C5.3724366 42.21249649 4.97976827 45.27616709 2 49 C-1.67682095 51.45121397 -4.72920963 51.82418762 -9 51 C-12.51544797 48.30731645 -14.26027991 46.32142301 -15 42 C-15.23089253 37.27388207 -15.18517052 32.54367476 -15.1875 27.8125 C-15.19974609 26.52279297 -15.21199219 25.23308594 -15.22460938 23.90429688 C-15.23524335 16.96740242 -15.05952325 10.65170348 -13 4 C-8.93108385 0.12033576 -5.55007614 -0.90819428 0 0 Z " fill="#141516" transform="translate(709,486)"/>
<path d="M0 0 C2.734375 0.0234375 2.734375 0.0234375 5.1875 0.4375 C11.68455001 7.25147928 10.4017779 16.63200119 10.4375 25.4375 C10.458125 26.70851563 10.47875 27.97953125 10.5 29.2890625 C10.50515625 30.51367188 10.5103125 31.73828125 10.515625 33 C10.52964355 34.67255859 10.52964355 34.67255859 10.54394531 36.37890625 C10.04661685 40.64639322 8.32691072 43.2167028 5.4375 46.3125 C1.99560577 48.03344712 -0.173944 47.47708743 -3.8125 46.4375 C-9.93855173 40.31144827 -9.03072302 33.37706113 -9.05273438 25.29614258 C-9.06241906 23.14299579 -9.09344452 20.99081268 -9.125 18.83789062 C-9.13153289 17.45833897 -9.13678224 16.07878052 -9.140625 14.69921875 C-9.1499707 13.45100342 -9.15931641 12.20278809 -9.16894531 10.91674805 C-8.48153053 4.20692064 -6.73137116 0.32523462 0 0 Z " fill="#141616" transform="translate(464.8125,488.5625)"/>
<path d="M0 0 C2.69990662 1.79993774 4.5418865 3.083773 6 6 C6.8326713 20.92999007 6.8326713 20.92999007 4 27 C1.69401889 29.17033516 0.17305785 29.94730404 -3 30.08984375 C-6.21255416 29.85953196 -8.42848084 29.58966134 -10.71508789 27.23046875 C-12.94797169 23.35442345 -12.47185963 19.3730444 -12.4375 15 C-12.45748047 14.09765625 -12.47746094 13.1953125 -12.49804688 12.265625 C-12.49316424 5.66430337 -12.49316424 5.66430337 -10.09765625 2.4375 C-6.52812926 -0.0086563 -4.35510057 -0.42697064 0 0 Z " fill="#131515" transform="translate(503,497)"/>
<path d="M0 0 C3.73350492 0.16970477 5.50221204 0.50098486 8.17871094 3.18408203 C11.41800621 8.43827876 10.48466025 14.99321901 10.390625 20.9296875 C10.38315607 22.28873865 10.37746622 23.64780064 10.37347412 25.00686646 C10.35826868 28.56797501 10.31903264 32.12842142 10.2746582 35.68927002 C10.23359436 39.32921392 10.21543954 42.96926577 10.1953125 46.609375 C10.15253204 53.7398527 10.08434387 60.86988291 10 68 C9.01 68 8.02 68 7 68 C7.00888245 67.23214172 7.01776489 66.46428345 7.0269165 65.67315674 C7.10709026 58.43409545 7.16797805 51.19524965 7.20724869 43.95586014 C7.22811704 40.23405252 7.25641981 36.51261198 7.30175781 32.79101562 C7.34524413 29.1989049 7.36914277 25.60714705 7.37950897 22.0147934 C7.3868955 20.64482823 7.40132001 19.27488223 7.42292023 17.90506744 C7.4519848 15.98540611 7.45363416 14.0653891 7.45410156 12.14550781 C7.46298401 11.05296692 7.47186646 9.96042603 7.48101807 8.83477783 C6.88379586 5.31517555 5.82971742 4.11778851 3 2 C2.01 2 1.02 2 0 2 C0 1.34 0 0.68 0 0 Z " fill="#1D1C19" transform="translate(738,475)"/>
<path d="M0 0 C0.33 0 0.66 0 1 0 C1.06058594 1.20398438 1.12117187 2.40796875 1.18359375 3.6484375 C1.26799732 5.22397077 1.35264541 6.79949096 1.4375 8.375 C1.47681641 9.1690625 1.51613281 9.963125 1.55664062 10.78125 C1.68893404 15.02601221 1.68893404 15.02601221 3 19 C3.084915 20.8863912 3.107193 22.77578515 3.09765625 24.6640625 C3.09443359 25.78554688 3.09121094 26.90703125 3.08789062 28.0625 C3.07951172 29.238125 3.07113281 30.41375 3.0625 31.625 C3.05798828 32.80835938 3.05347656 33.99171875 3.04882812 35.2109375 C3.03701467 38.14067507 3.02054258 41.07031272 3 44 C2.67 44 2.34 44 2 44 C1.67 81.29 1.34 118.58 1 157 C0.67 157 0.34 157 0 157 C0 105.19 0 53.38 0 0 Z " fill="#212221" transform="translate(646,424)"/>
<path d="M0 0 C0.33 0 0.66 0 1 0 C1.02505615 0.59014893 1.0501123 1.18029785 1.07592773 1.78833008 C1.19200052 4.46326814 1.31467572 7.1378638 1.4375 9.8125 C1.47681641 10.74126953 1.51613281 11.67003906 1.55664062 12.62695312 C1.59853516 13.51962891 1.64042969 14.41230469 1.68359375 15.33203125 C1.72025146 16.15421143 1.75690918 16.9763916 1.79467773 17.82348633 C1.93427772 20.17905178 1.93427772 20.17905178 3 23 C3.10857915 25.49257586 3.16402328 27.95630806 3.16796875 30.44921875 C3.17129715 31.18066605 3.17462555 31.91211334 3.17805481 32.66572571 C3.18311592 34.21488823 3.18546339 35.76406164 3.18530273 37.31323242 C3.18747592 39.66148362 3.20560287 42.0092546 3.22460938 44.35742188 C3.22754629 45.86718591 3.22952909 47.37695215 3.23046875 48.88671875 C3.23765427 49.5797258 3.24483978 50.27273285 3.25224304 50.98674011 C3.22930629 55.98481223 2.34659829 60.22769837 1 65 C0.67 65 0.34 65 0 65 C0 43.55 0 22.1 0 0 Z " fill="#23211D" transform="translate(350,397)"/>
<path d="M0 0 C0.66 0.33 1.32 0.66 2 1 C2 9.25 2 17.5 2 26 C1.01 26.33 0.02 26.66 -1 27 C-1.02886537 22.68751391 -1.04675255 18.37505238 -1.0625 14.0625 C-1.07087891 12.83080078 -1.07925781 11.59910156 -1.08789062 10.33007812 C-1.09111328 9.16025391 -1.09433594 7.99042969 -1.09765625 6.78515625 C-1.10289307 5.70113525 -1.10812988 4.61711426 -1.11352539 3.50024414 C-1 1 -1 1 0 0 Z " fill="#201F1C" transform="translate(762,453)"/>
<path d="M0 0 C0.33 0 0.66 0 1 0 C1.17684205 8.57059499 1.34280551 17.14130127 1.49477577 25.71236992 C1.56568127 29.6920006 1.64037211 33.67148602 1.72363281 37.65087891 C1.80380404 41.4892049 1.87413776 45.32759525 1.93757248 49.16623306 C1.96355207 50.63275958 1.99311238 52.09922706 2.02626419 53.56560898 C2.07199604 55.61515164 2.10513962 57.66453233 2.13525391 59.71435547 C2.15746002 60.88239716 2.17966614 62.05043884 2.20254517 63.25387573 C2 66 2 66 0 68 C-1.35251041 61.00975257 -1.02660134 54.06468877 -0.87890625 46.97265625 C-0.85456798 45.61503451 -0.83072636 44.25740379 -0.80735779 42.89976501 C-0.74488521 39.3470934 -0.67571681 35.7945833 -0.60510254 32.24206543 C-0.53408385 28.60871664 -0.46946843 24.97525442 -0.40429688 21.34179688 C-0.27576018 14.22774145 -0.14014184 7.11383705 0 0 Z " fill="#1E1F1F" transform="translate(796,485)"/>
<path d="M0 0 C0.33 0 0.66 0 1 0 C2.21086752 11.35349319 3.38178283 22.56772513 3 34 C2.01 34 1.02 34 0 34 C0 22.78 0 11.56 0 0 Z " fill="#21201D" transform="translate(543,491)"/>
<path d="M0 0 C1.485 0.99 1.485 0.99 3 2 C3.29296875 5.0390625 3.29296875 5.0390625 3.1875 8.625 C3.16042969 9.81351562 3.13335937 11.00203125 3.10546875 12.2265625 C3.07066406 13.14179688 3.03585937 14.05703125 3 15 C2.67 15 2.34 15 2 15 C1.67 20.94 1.34 26.88 1 33 C0.67 33 0.34 33 0 33 C0 22.11 0 11.22 0 0 Z " fill="#1D1D1A" transform="translate(264,448)"/>
<path d="M0 0 C0.33 0 0.66 0 1 0 C1 6.6 1 13.2 1 20 C1.66 20 2.32 20 3 20 C3 23.3 3 26.6 3 30 C2.01 30 1.02 30 0 30 C0 20.1 0 10.2 0 0 Z " fill="#36322C" transform="translate(419,523)"/>
<path d="M0 0 C0.66 0.33 1.32 0.66 2 1 C2 6.28 2 11.56 2 17 C1.01 17 0.02 17 -1 17 C-1.02684679 14.35409986 -1.04676357 11.70846904 -1.0625 9.0625 C-1.07087891 8.30775391 -1.07925781 7.55300781 -1.08789062 6.77539062 C-1.09652441 4.85005687 -1.05224333 2.92464419 -1 1 C-0.67 0.67 -0.34 0.34 0 0 Z " fill="#2C2926" transform="translate(436,475)"/>
<path d="M0 0 C0.33 0 0.66 0 1 0 C1.02706445 2.89589652 1.04687029 5.79153795 1.0625 8.6875 C1.07087891 9.50412109 1.07925781 10.32074219 1.08789062 11.16210938 C1.10442051 15.24499084 1.03035098 19.01651707 0 23 C-0.33 23 -0.66 23 -1 23 C-2.10228696 18.59085217 -2.07654536 14.51617599 -2 10 C-1.67 10 -1.34 10 -1 10 C-0.67 6.7 -0.34 3.4 0 0 Z " fill="#262624" transform="translate(598,413)"/>
<path d="M0 0 C-4.06965968 2.95975249 -6.99388969 3.56672947 -12 3 C-12.66 2.01 -13.32 1.02 -14 0 C-12.04235617 -0.19456705 -10.08384679 -0.38044247 -8.125 -0.5625 C-6.48917969 -0.71912109 -6.48917969 -0.71912109 -4.8203125 -0.87890625 C-2 -1 -2 -1 0 0 Z " fill="#1E1D1A" transform="translate(436,556)"/>
<path d="M0 0 C3.96 0.33 7.92 0.66 12 1 C9 4 9 4 5.4375 4.25 C2 4 2 4 0 3 C0 2.01 0 1.02 0 0 Z " fill="#2B2926" transform="translate(355,634)"/>
<path d="M0 0 C0.33 0 0.66 0 1 0 C1.3125 2.8125 1.3125 2.8125 1 6 C-2.12637446 9.12637446 -5.0934939 9.16954678 -9.3125 9.1875 C-10.87551517 9.13958275 -12.43839515 9.08187055 -14 9 C-14.33 8.34 -14.66 7.68 -15 7 C-14.39671875 7.02320313 -13.7934375 7.04640625 -13.171875 7.0703125 C-12.37265625 7.08835937 -11.5734375 7.10640625 -10.75 7.125 C-9.56664062 7.15980469 -9.56664062 7.15980469 -8.359375 7.1953125 C-5.73800353 6.97831155 -4.19957866 6.42779667 -2 5 C-0.71745356 2.46229997 -0.71745356 2.46229997 0 0 Z " fill="#F7F3E4" transform="translate(437,551)"/>
<path d="M0 0 C0.66 0.66 1.32 1.32 2 2 C-6.03571429 4.27678571 -6.03571429 4.27678571 -10 3 C-7.30045271 -0.81112559 -4.38454651 -0.39859514 0 0 Z " fill="#1E1D1A" transform="translate(610,386)"/>
<path d="M0 0 C0.66 0.66 1.32 1.32 2 2 C0.56496445 2.36402369 -0.87316506 2.71586591 -2.3125 3.0625 C-3.11300781 3.25972656 -3.91351563 3.45695312 -4.73828125 3.66015625 C-7 4 -7 4 -10 3 C-6.70335635 -0.04305568 -4.44038228 -0.48265025 0 0 Z " fill="#22201D" transform="translate(363,386)"/>
<path d="M0 0 C-0.99 0.33 -1.98 0.66 -3 1 C-3.99 1.495 -3.99 1.495 -5 2 C-7 3 -7 3 -10 4 C-10.33 2.68 -10.66 1.36 -11 0 C-7.01803543 -1.05404945 -4.01804691 -0.84098656 0 0 Z " fill="#1C1E1D" transform="translate(808,468)"/>
<path d="M0 0 C3.375 -0.125 3.375 -0.125 7 0 C7.66 0.66 8.32 1.32 9 2 C8 3 8 3 6.15234375 3.09765625 C4.1015625 3.06510417 2.05078125 3.03255208 0 3 C0 2.01 0 1.02 0 0 Z " fill="#3C3A33" transform="translate(254,437)"/>
<path d="M0 0 C1.98 0 3.96 0 6 0 C6.33 0.66 6.66 1.32 7 2 C4.69 2.33 2.38 2.66 0 3 C0 2.01 0 1.02 0 0 Z " fill="#232320" transform="translate(289,631)"/>
<path d="M0 0 C1.65 0 3.3 0 5 0 C5 0.99 5 1.98 5 3 C2.36 3 -0.28 3 -3 3 C-2.01 2.67 -1.02 2.34 0 2 C0 1.34 0 0.68 0 0 Z " fill="#242320" transform="translate(768,578)"/>
<path d="M0 0 C2.875 -0.125 2.875 -0.125 6 0 C6.66 0.66 7.32 1.32 8 2 C7 3 7 3 3.4375 3.0625 C2.303125 3.041875 1.16875 3.02125 0 3 C0 2.01 0 1.02 0 0 Z " fill="#1D1E1B" transform="translate(497,497)"/>
</svg>
